<svg xmlns="http://www.w3.org/2000/svg" width="70" height="67" stroke="#62AF85" fill="none"><g stroke="current" clip-path="url(#a)"><path d="M8.5 8.5h8v8h-8zM.5.5h8v8h-8zM16.5.5h8v8h-8zM.5 16.5h8v8h-8zM25 .5h10M.5 24.5v10"/></g><g stroke="current" clip-path="url(#b)"><path d="M8.5 58.5h8v-8h-8zM.5 66.5h8v-8h-8zM16.5 66.5h8v-8h-8zM.5 50.5h8v-8h-8zM25 66.5h10M.5 42.5v-10"/></g><g stroke="current" clip-path="url(#c)"><path d="M61.5 8.5h-8v8h8zM69.5.5h-8v8h8zM53.5.5h-8v8h8zM69.5 16.5h-8v8h8zM45 .5H35M69.5 24.5v10"/></g><g stroke="current" clip-path="url(#d)"><path d="M61.5 58.5h-8v-8h8zM69.5 66.5h-8v-8h8zM53.5 66.5h-8v-8h8zM69.5 50.5h-8v-8h8zM45 66.5H35M69.5 42.5v-10"/></g><defs><clipPath id="a"><path fill="#fff" d="M0 0h35v34H0z"/></clipPath><clipPath id="b"><path fill="#fff" d="M0 67h35V33H0z"/></clipPath><clipPath id="c"><path fill="#fff" d="M70 0H35v34h35z"/></clipPath><clipPath id="d"><path fill="#fff" d="M70 67H35V33h35z"/></clipPath></defs></svg>