<svg width="100%" height="100%" viewBox="0 0 26 26" fill="none" xmlns="http://www.w3.org/2000/svg">
<path fill-rule="evenodd" clip-rule="evenodd" d="M17.105 4.93546L8.21353 0.464355L11.1342 4.31806L6.56273 4.9825L8.21353 5.38116L5.03891 8.8362H7.70559L6.95564 9.40697C6.53225 9.7292 6.1999 10.1651 5.99368 10.6687C5.70634 11.3703 5.6816 12.1593 5.92437 12.8791L6.00088 13.1059C6.20266 13.7042 6.54966 14.2373 7.00781 14.6528L10.1183 17.4738L9.54259 14.6623C9.41952 14.0612 9.40338 13.4416 9.49499 12.8345L9.51563 12.6977C9.65973 11.7426 10.0893 10.8599 10.7426 10.1762C11.5625 9.31821 12.6745 8.8362 13.834 8.8362H15.7057L14.6898 11.2282L16.9322 10.9854C17.828 10.8884 18.7083 11.2815 19.2612 12.0255L19.7662 11.839C20.8214 11.4492 21.6756 10.6202 22.1263 9.54831L22.5812 8.46635C22.7286 8.1158 22.7007 7.71163 22.5068 7.38686C22.3047 7.04847 21.9502 6.84291 21.5689 6.84291H19.1773C18.8418 6.84291 18.5372 6.63766 18.3983 6.31797C18.1354 5.71274 17.6777 5.2234 17.105 4.93546ZM17.3562 6.84291C17.3562 7.35665 16.9582 7.77312 16.4673 7.77312C15.9764 7.77312 15.5784 7.35665 15.5784 6.84291C15.5784 6.32917 15.9764 5.9127 16.4673 5.9127C16.9582 5.9127 17.3562 6.32917 17.3562 6.84291Z" fill="current"/>
<path d="M11.9587 11.0476L13.293 10.0321L13.0927 11.7087C13.0573 12.0056 13.077 12.3069 13.151 12.596C13.3763 13.4773 14.0744 14.1385 14.9348 14.2856L15.7057 14.4174L18.1587 14.9154C18.7227 15.0299 19.2633 15.2467 19.7559 15.5561C20.877 16.2599 21.6888 17.4173 22.0058 18.7445C21.345 18.053 20.5788 17.4812 19.7387 17.0528L19.2613 16.8093L20.0425 18.6488C20.1972 19.0131 20.2772 19.4073 20.2772 19.8059C20.2772 20.5275 20.0155 21.2222 19.545 21.7497L16.7216 24.9154L17.1369 23.871C17.3858 23.2451 17.514 22.5738 17.514 21.8959C17.514 21.5376 17.467 21.1811 17.3745 20.8362L17.3648 20.8003C16.9684 19.3233 15.8321 18.1912 14.4029 17.8493L13.1927 17.5599C12.5932 17.4165 12.0414 17.1079 11.5943 16.666C10.9122 15.9919 10.5221 15.0435 10.5144 14.0617C10.505 12.8766 11.0428 11.7447 11.9587 11.0476Z" fill="current"/>
<path d="M11.5637 22.4006H11.7774C12.2636 22.4006 12.7389 22.25 13.1434 21.9678C13.6648 21.604 13.8991 20.9273 13.7212 20.2984L13.3207 18.8818L14.4845 19.3952C15.345 19.7748 15.9837 20.5639 16.2038 21.5137C16.3737 22.247 16.2795 23.024 15.9376 23.6884C15.7029 24.1446 15.3612 24.531 14.9447 24.8112L14.7786 24.9229C14.1429 25.3506 13.3969 25.5635 12.6417 25.5329L12.2615 25.5175C11.1392 25.4719 10.0659 25.0239 9.22171 24.2486L7.19871 22.3907L5.29394 20.5303L5.54791 23.4538L4.40828 21.6298C3.74331 20.5655 3.38916 19.3215 3.38916 18.0499V17.8776C3.38916 16.7461 3.69752 15.6379 4.27806 14.6833C4.78086 15.911 5.51447 17.0204 6.43526 17.9454L8.21459 19.7329L5.92886 19.0685L9.02934 21.356L9.66372 21.7986C10.2264 22.1911 10.8875 22.4006 11.5637 22.4006Z" fill="current"/>
</svg>
