<svg width="1em" height="1em" viewBox="0 0 58 58" fill="none" xmlns="http://www.w3.org/2000/svg">
<path d="M26.5466 6C26.5466 6 42.2456 13.6714 36.8687 27.9618C36.8687 27.9618 41.0666 25.8745 42.9983 21.3353C42.9983 21.3353 49.9412 27.3654 49.9412 35.9136C49.9412 41.8979 45.2435 47.454 35.2188 51.4732H32.9581C36.4128 46.6291 36.7275 42.4654 33.5605 39.3238C26.6492 32.9291 29.6732 28.6551 29.6732 28.6551C29.6732 28.6551 22.3646 32.0932 20.9354 38.5005C20.1722 41.9387 20.9358 46.4039 25.6152 51.4809H24.2188C15.4467 48.6493 9 42.8689 9 34.3182C9 18.3432 25.3544 21.0091 26.5466 6Z" fill="url(#paint0_linear_6144_18445)"/>
<path d="M17.4141 38.6994L36.9392 34.8066L35.2164 51.4901H24.8795L17.4141 38.6994Z" fill="url(#paint1_linear_6144_18445)"/>
<path d="M26.9863 21.5759C26.9863 21.5759 35.7153 25.8725 33.0541 33.9435C33.0541 33.9435 35.8485 33.5954 37.4376 30.6791C37.4376 30.6791 42.6776 34.6672 42.6776 40.2952C42.6776 42.5428 41.6537 48.0791 35.4369 51.4901H34.0636C36.5566 48.299 34.3356 45.5904 32.0487 43.5261C27.0593 39.3058 29.2416 36.5025 29.2416 36.5025C29.2416 36.5025 23.9636 38.7683 22.9359 42.9855C22.384 45.2514 22.154 48.1158 25.4495 51.4901H24.6027C18.2589 49.6243 14.819 43.5352 15.133 39.7822C15.9894 29.5279 26.298 30.8257 26.7421 21.46L26.9863 21.5759Z" fill="url(#paint2_linear_6144_18445)"/>
<defs>
<linearGradient id="paint0_linear_6144_18445" x1="29.4706" y1="6" x2="29.4706" y2="51.3101" gradientUnits="userSpaceOnUse">
<stop stop-color="#FF9B53"/>
<stop offset="0.700648" stop-color="#DC5125"/>
<stop offset="1" stop-color="#BD3205"/>
</linearGradient>
<linearGradient id="paint1_linear_6144_18445" x1="27.1766" y1="34.8066" x2="27.1766" y2="51.4901" gradientUnits="userSpaceOnUse">
<stop stop-color="#FFFDED" stop-opacity="0.89"/>
<stop offset="1" stop-color="#FFF882"/>
</linearGradient>
<linearGradient id="paint2_linear_6144_18445" x1="28.8954" y1="21.46" x2="28.8954" y2="51.4901" gradientUnits="userSpaceOnUse">
<stop stop-color="#FFE483"/>
<stop offset="1" stop-color="#F6A62D"/>
</linearGradient>
</defs>
</svg>
