<svg width="100%" height="100%" viewBox="0 0 26 26" fill="none" xmlns="http://www.w3.org/2000/svg">
<path fill-rule="evenodd" clip-rule="evenodd" d="M13 3C7.47715 3 3 7.47715 3 13C3 18.5228 7.47715 23 13 23C18.5228 23 23 18.5228 23 13C23 7.47715 18.5228 3 13 3ZM8.81494 20.9959C10.0571 21.6375 11.4665 21.9999 12.9594 21.9999C17.9453 21.9999 22.0002 17.9581 22.0002 12.9722C22.0002 10.6757 21.1399 8.57938 19.7245 6.98614C19.9049 7.79528 20.0001 8.63658 20.0001 9.5001C20.0001 15.7461 15.0207 20.8291 8.81494 20.9959ZM14.2361 10.6334L13 7.99998L11.764 10.6334L9.00005 11.0557L11 13.1055L10.5279 16L13 14.6334L15.4722 16L15 13.1055L17 11.0557L14.2361 10.6334Z" fill="current"/>
</svg>
