<svg width="16" height="16" viewBox="0 0 16 16" fill="none" xmlns="http://www.w3.org/2000/svg">
<path d="M8.00461 15.5C4.68409 15.5 2 13.9468 2 12.0426V10.0957C2 12.0106 4.68409 13.2021 8.00461 13.2021C11.3159 13.2021 14 12.0106 14 10.0957V12.0426C14 13.9468 11.3159 15.5 8.00461 15.5ZM8.00461 12.0426C4.68409 12.0426 2 10.4894 2 8.57447V6.62766C2 8.54255 4.68409 9.73404 8.00461 9.73404C11.3159 9.73404 14 8.54255 14 6.62766V8.57447C14 10.4894 11.3159 12.0426 8.00461 12.0426ZM8.00461 8.57447C4.68409 8.57447 2 7.03192 2 5.11702V3.95745C2 2.05319 4.68409 0.5 8.00461 0.5C11.3159 0.5 14 2.05319 14 3.95745V5.10638C14 7.03191 11.3159 8.57447 8.00461 8.57447Z" fill="#FFE7AB"/>
</svg>
