<svg width="100%" height="100%" viewBox="0 0 21 21" fill="none" xmlns="http://www.w3.org/2000/svg">
<path fill-rule="evenodd" clip-rule="evenodd" d="M20.0455 7.15914C20.0455 10.5858 17.2676 13.3637 13.8409 13.3637C13.0087 13.3637 12.2148 13.1999 11.4897 12.9027L8.59086 15.8014L8.1883 15.3989C7.54348 14.754 6.498 14.754 5.85317 15.3989C5.20834 16.0437 5.20834 17.0892 5.85317 17.734L6.25568 18.1365L3.99934 20.3927L0.961994 20.0553L0.624512 17.0179L8.10758 9.53515C7.80396 8.80332 7.63637 8.0008 7.63637 7.15914C7.63637 3.73246 10.4142 0.95459 13.8409 0.95459C17.2676 0.95459 20.0455 3.73246 20.0455 7.15914ZM17.7705 7.15914C17.7705 9.32936 16.0111 11.0887 13.8409 11.0887C11.6707 11.0887 9.91137 9.32936 9.91137 7.15914C9.91137 4.98891 11.6707 3.22959 13.8409 3.22959C16.0111 3.22959 17.7705 4.98891 17.7705 7.15914Z" fill="current"/>
</svg>
