<svg width="20" height="21" viewBox="0 0 20 21" fill="none" xmlns="http://www.w3.org/2000/svg">
<path id="Union" fill-rule="evenodd" clip-rule="evenodd" d="M13.6151 0.61872L13.6151 0.618706C14.1581 0.409644 14.7014 0.200487 15.248 0C15.4714 0.708528 15.7015 1.41471 15.9315 2.12076C16.1911 2.91761 16.4506 3.71429 16.7005 4.51395C15.6128 4.92335 14.5271 5.34547 13.4457 5.77184C13.2805 5.24248 13.1095 4.71494 12.9385 4.18739C12.6196 3.20346 12.3007 2.21954 12.0188 1.22394C12.5525 1.02776 13.0837 0.823288 13.6151 0.61872ZM8.02783 2.76809C9.10494 2.36082 10.1799 1.95142 11.2528 1.53566C11.4248 2.07081 11.5998 2.60488 11.7748 3.13892L11.7749 3.13922L11.775 3.13955L11.775 3.13958C12.0925 4.1083 12.4098 5.07693 12.7095 6.05173C11.9602 6.33523 11.2138 6.62376 10.4671 6.91247L10.467 6.91248L10.467 6.91249L10.467 6.91249L10.4668 6.91257L10.4666 6.91264L10.4664 6.91272C10.1294 7.04301 9.79228 7.17334 9.45475 7.30326C9.27048 6.70578 9.07758 6.11095 8.88469 5.51615L8.88469 5.51612L8.88467 5.51609C8.58861 4.60314 8.29258 3.69028 8.02783 2.76809ZM7.23272 3.07783C6.14921 3.49147 5.06569 3.9051 3.98218 4.31663C4.25837 5.16273 4.52798 6.01102 4.79759 6.85934C5.27962 8.37599 5.76167 9.89272 6.28145 11.3973C7.03649 11.3888 7.79154 11.3888 8.54659 11.3973C8.60335 11.2259 8.663 11.0551 8.72269 10.8842L8.72269 10.8842L8.72269 10.8842C8.91417 10.336 9.10596 9.78699 9.20352 9.21452C8.82282 7.97216 8.41948 6.73602 8.01618 5.49998L8.01617 5.49995L8.01616 5.49991L8.01608 5.49968C7.75285 4.69292 7.48963 3.8862 7.23272 3.07783ZM0 5.8502C0.544959 5.65186 1.08672 5.44345 1.62848 5.23504C2.17023 5.02663 2.71198 4.81822 3.25693 4.61988C4.05251 7.21414 4.8758 9.79991 5.70124 12.3835C5.32094 12.3829 4.94064 12.3843 4.56033 12.3857H4.56023C3.72055 12.3888 2.88086 12.3919 2.04118 12.3729C1.6819 11.1714 1.30128 9.97624 0.920688 8.78116C0.609905 7.80529 0.299135 6.82946 0 5.8502ZM12.5663 7.18687C11.624 7.54978 10.6819 7.91266 9.73863 8.27265C10.0553 9.21348 10.3526 10.163 10.6498 11.1118C10.6809 11.2112 10.7121 11.3106 10.7432 11.4099C11.0606 11.4099 11.378 11.4096 11.6954 11.4092C12.4892 11.4084 13.2831 11.4075 14.077 11.4121C13.601 11.773 13.1274 12.1363 12.654 12.4994C12.2343 12.8214 11.8147 13.1433 11.3938 13.4633C11.5311 13.9559 11.6874 14.4429 11.8436 14.9297C12.0318 15.5162 12.2199 16.1024 12.3749 16.6982C11.8014 16.3456 11.2726 15.9304 10.7435 15.5152C10.4068 15.2508 10.07 14.9865 9.72156 14.7381C9.40205 14.9728 9.08887 15.2163 8.77569 15.4598C8.21707 15.8941 7.65847 16.3283 7.06396 16.7129C7.33452 15.7167 7.65553 14.7328 7.97565 13.7517C8.00379 13.6655 8.03193 13.5792 8.06002 13.493C6.96288 13.4336 5.86573 13.4464 4.76858 13.4592C3.78829 13.4707 2.80799 13.4821 1.82769 13.4421C1.62542 13.0931 1.41844 12.7474 1.21154 12.4018C0.91662 11.9092 0.621845 11.4168 0.341064 10.9157C0.539195 11.9898 0.742042 13.0631 0.944833 14.1361C1.07605 14.8304 1.20725 15.5246 1.33712 16.2188C1.34498 16.253 1.35233 16.2877 1.35973 16.3227C1.40059 16.5159 1.44304 16.7167 1.58028 16.8657C1.9122 17.2703 2.25351 17.6666 2.59493 18.0631C2.92485 18.4462 3.25488 18.8294 3.57668 19.2203C3.57668 19.3682 3.57654 19.5161 3.57641 19.6642C3.57601 20.1089 3.57561 20.5544 3.57881 21C5.46429 20.9989 7.34978 20.9989 9.23526 20.9989C11.1208 20.9989 13.0062 20.9989 14.8918 20.9978C14.8925 20.6373 14.8922 20.2768 14.8918 19.9163C14.8912 19.2841 14.8905 18.6518 14.8959 18.0196C15.7521 17.0415 16.6046 16.0601 17.457 15.0788C18.3035 14.1044 19.1499 13.13 19.9999 12.1587C19.6512 11.0341 19.287 9.91395 18.9228 8.7937C18.5341 7.59814 18.1454 6.40246 17.7754 5.20113C16.0342 5.8512 14.3001 6.51907 12.5663 7.18687Z" fill="#FFE7AB"/>
</svg>
