<svg width="38" height="18" viewBox="0 0 38 18" fill="none" xmlns="http://www.w3.org/2000/svg"><path d="M0 9a9 9 0 0 1 9-9h20a9 9 0 1 1 0 18H0V9z" fill="#F13361"/><path d="M13.844 4.469V13h-1.758L8.658 7.281V13H6.9V4.469h1.758l3.434 5.724V4.47h1.752zm7.254 7.16V13h-4.541v-1.371h4.54zm-3.967-7.16V13h-1.758V4.469h1.758zm3.375 3.474V9.28h-3.95V7.943h3.95zm.586-3.474v1.377h-4.535V4.469h4.535zm3.088 7.177l1.699-7.177h.95l.216 1.195L25.235 13h-1.02l-.035-1.354zm-.873-7.177l1.406 7.177L24.596 13h-1.137l-1.893-8.531h1.74zm5.232 7.148l1.389-7.148h1.74L29.781 13h-1.136l-.106-1.383zM27.361 4.47l1.711 7.207L29.025 13h-1.02l-1.821-7.342.234-1.19h.943z" fill="#fff"/></svg>