<svg width="16" height="16" viewBox="0 0 16 16" fill="none" xmlns="http://www.w3.org/2000/svg">
<path d="M8.7411 14.5499L8.97864 14.5234L8.80962 14.3543L7.69337 13.2381L7.66305 13.2078L7.6203 13.2047C4.91561 13.0103 2.78166 10.7543 2.78166 7.99996C2.78166 5.45258 4.60707 3.3313 7.02122 2.87325L7.23485 2.83272L7.08111 2.67896L5.08318 0.680653L4.88685 0.484292L4.88685 0.761963L4.88685 2.18887C2.8168 3.30013 1.4088 5.48553 1.4088 7.99996C1.4088 11.6402 4.35978 14.5912 7.99999 14.5912C8.2505 14.5912 8.49778 14.5772 8.7411 14.5499ZM9.26304 2.91882L9.28516 2.94095L9.31545 2.94881C11.5607 3.53186 13.2183 5.57248 13.2183 7.99996C13.2183 10.3332 11.6869 12.3091 9.57415 12.9767L9.39357 13.0338L9.52749 13.1677L11.2985 14.9385L11.4948 15.1348V14.8572V13.5894C13.3543 12.4243 14.5912 10.3566 14.5912 7.99996C14.5912 4.37017 11.6571 1.42568 8.03123 1.40885L7.75176 1.40755L7.94938 1.60516L9.26304 2.91882Z" fill="#43BBFF" stroke="#43BBFF" stroke-width="0.23"/>
</svg>
