<svg width="24" height="24" viewBox="0 0 24 24" fill="none" xmlns="http://www.w3.org/2000/svg">
<path d="M13.415 21.915C12.9526 21.9804 12.4803 22.0142 12.0001 22.0142C6.46939 22.0142 1.98584 17.5306 1.98584 11.9999C1.98584 8.2067 4.09486 4.90657 7.20292 3.2073V0.418518L11.113 4.32934L10.5557 4.43508C6.99356 5.11094 4.30013 8.24119 4.30013 11.9999C4.30013 15.9665 7.29946 19.2326 11.1539 19.6539L13.415 21.915Z" fill="#ffffff"/>
<path d="M14.0671 4.58043L11.4853 1.99861C11.6559 1.98997 11.8275 1.9856 12.0001 1.9856C17.5309 1.98559 22.0144 6.46915 22.0144 11.9999C22.0144 15.5553 20.1614 18.6776 17.3699 20.4543V23.01L13.8518 19.4923L14.323 19.3434C17.4406 18.3582 19.7001 15.4425 19.7001 11.9999C19.7001 8.46335 17.3158 5.48353 14.0671 4.58043Z" fill="#ffffff"/>
</svg>
