<svg width="1em" height="1em" viewBox="0 0 18 19" fill="current" stroke="current" xmlns="http://www.w3.org/2000/svg">
<path d="M13.1819 18.6139L13.2843 18.7163V18.5714V16.9401C15.6071 15.503 17.1548 12.9322 17.1548 9.99989C17.1548 5.49588 13.5035 1.84466 8.99954 1.84466C8.67318 1.84466 8.35129 1.86383 8.03491 1.90111L7.91198 1.9156L7.99951 2.00313L9.38558 3.3892L9.4016 3.40522L9.42421 3.40665C12.875 3.62554 15.6062 6.49379 15.6062 9.99989C15.6062 12.954 13.6673 15.4554 10.9925 16.3007L10.8982 16.3305L10.9681 16.4003L12.0809 17.5129L13.1819 18.6139ZM9.55962 16.6043L9.54011 16.5848L9.5126 16.5869C9.34329 16.5999 9.17219 16.6066 8.99953 16.6066C5.35077 16.6066 2.39287 13.6487 2.39287 9.99989C2.39287 6.77469 4.70397 4.08914 7.76046 3.50922L7.87192 3.48807L7.79171 3.40785L5.29429 0.90997L5.19186 0.807521V0.952393L5.19186 2.78629C2.60629 4.15389 0.844297 6.87108 0.844297 9.99989C0.844298 14.5039 4.49552 18.1551 8.99954 18.1551C9.61251 18.1551 10.2098 18.0875 10.7842 17.9592L10.8907 17.9355L10.8135 17.8583L9.55962 16.6043Z" fill="current" stroke="current" stroke-width="0.12"/>
</svg>
