<svg width="100%" height="100%" viewBox="0 0 24 24" fill="none" xmlns="http://www.w3.org/2000/svg">
<path d="M14.8141 19.9805C14.8251 19.9876 14.8559 20 14.8885 20L14.8921 19.9999L17.181 18.729C17.1258 18.6 16.8731 17.9741 16.8731 17.3215C16.8731 15.3693 18.4037 13.7695 20.3224 13.6694C20.3501 13.516 20.5 12.6545 20.5 12.0078C20.5 11.3612 20.3501 10.4997 20.3224 10.3462C18.4037 10.246 16.8731 8.64621 16.8731 6.69399C16.8731 6.04029 17.1267 5.41366 17.1815 5.28576L14.9295 4.02895C14.9264 4.02873 14.9233 4.02862 14.9202 4.02862C14.8818 4.02862 14.8459 4.0426 14.8342 4.05069C14.7962 4.08974 14.4699 4.4223 14.0011 4.75364C13.3071 5.24417 12.6508 5.49287 12.0505 5.49287C11.4443 5.49287 10.7828 5.23928 10.0842 4.73911C9.61246 4.40134 9.28452 4.06245 9.24665 4.02274C9.23472 4.01442 9.19839 4 9.15964 4L9.15158 4.00022L6.81935 5.28698C6.87522 5.41755 7.12708 6.04229 7.12708 6.69377C7.12708 8.64599 5.59637 10.2458 3.67755 10.346C3.64995 10.4993 3.5 11.3609 3.5 12.0075C3.5 12.6539 3.64984 13.5156 3.67755 13.6691C5.59637 13.7692 7.12697 15.3692 7.12697 17.3213C7.12697 17.9762 6.87257 18.6041 6.81847 18.7304L9.02592 19.9704C9.05326 19.9712 9.08033 19.9647 9.10443 19.9517C9.14572 19.9072 9.47543 19.5565 9.95033 19.2069C10.6582 18.6858 11.3309 18.4215 11.9496 18.4215C12.5745 18.4215 13.2521 18.6908 13.9642 19.222C14.4419 19.5781 14.7729 19.9353 14.8141 19.9805Z" stroke="white" stroke-width="1.6"/>
<circle cx="12" cy="12" r="2.5" stroke="white" stroke-width="1.6"/>
</svg>
