<svg width="100%" height="100%" viewBox="0 0 26 26" fill="none" xmlns="http://www.w3.org/2000/svg">
<path fill-rule="evenodd" clip-rule="evenodd" d="M5.19191 9.72268C5.00278 9.54659 4.83505 9.36422 4.68874 9.17556C4.53529 8.97746 4.40325 8.77307 4.3069 8.5624C4.10706 8.1662 4.00357 7.75114 4.00357 7.32351C4.00357 4.6602 8.03252 2.5 13 2.5C17.9675 2.5 21.9964 4.6602 21.9964 7.32351C21.9964 7.75429 21.8894 8.16935 21.6931 8.5624C21.5896 8.77307 21.4576 8.97746 21.3041 9.17556C21.1578 9.36422 20.9901 9.54974 20.801 9.72268C20.073 10.3987 19.0523 10.9742 17.8283 11.3924C17.4108 11.537 16.9683 11.6628 16.5044 11.7697C15.68 11.9552 14.7879 12.0778 13.86 12.125C13.5781 12.1407 13.2891 12.147 12.9964 12.147C12.7038 12.147 12.4148 12.1407 12.1328 12.125C11.205 12.0778 10.3128 11.9552 9.4885 11.7697C9.02459 11.6596 8.58208 11.537 8.16455 11.3924C6.94052 10.971 5.91634 10.3987 5.19191 9.72268ZM4.30333 17.4345C6.19112 19.0381 9.34933 20.0726 12.9964 20.0726C16.6435 20.0726 19.8017 19.0381 21.6895 17.4345C21.8894 17.8338 21.9929 18.2489 21.9929 18.6765C21.9929 21.3429 17.9639 23.5 12.9964 23.5C8.02895 23.5 4 21.3398 4 18.6765C4 18.2457 4.10706 17.8307 4.30333 17.4345ZM18.8846 13.3709C19.1844 13.2545 19.4734 13.1288 19.7482 12.9967C20.4905 12.6382 21.1471 12.2232 21.7002 11.7547C21.8965 12.154 22 12.5691 22 12.9967C22 13.4275 21.8929 13.8425 21.6967 14.2387C21.5932 14.4494 21.4611 14.6538 21.3077 14.8519C21.1614 15.0406 20.9937 15.2261 20.8045 15.399C19.2522 16.8486 16.3402 17.8233 13 17.8233C9.65979 17.8233 6.74782 16.8486 5.19548 15.399C5.00634 15.2229 4.83862 15.0406 4.69231 14.8519C4.53886 14.6538 4.40325 14.4494 4.30333 14.2387C4.10349 13.8394 4 13.4243 4 12.9967C4.00096 12.5688 4.10305 12.1458 4.29976 11.7547C4.84576 12.2232 5.50238 12.6382 6.24465 12.9967C6.51943 13.1288 6.80849 13.2577 7.10825 13.3709C7.44726 13.5061 7.80056 13.6224 8.16455 13.7293C9.60627 14.157 11.2443 14.396 12.9964 14.396C14.7486 14.396 16.3866 14.157 17.8283 13.7293C18.1923 13.6224 18.5456 13.5029 18.8846 13.3709Z" fill="current"/>
</svg>
