<svg width="16" height="16" viewBox="0 0 16 16" fill="none" xmlns="http://www.w3.org/2000/svg">
<g clip-path="url(#clip0_65973_3890)">
<path d="M8 16C12.4178 16 16 12.4178 16 8C16 3.58222 12.4178 -1.67411e-08 8 0C3.58222 1.67411e-08 -1.67411e-08 3.58222 0 8C1.67411e-08 12.4178 3.58222 16 8 16Z" fill="#2775CA"/>
<path d="M10.193 9.27255C10.193 8.1043 9.4819 7.71065 8.10793 7.52271C7.0946 7.37541 6.89777 7.13795 6.89777 6.6643C6.89777 6.21478 7.24063 5.89605 7.90349 5.89605C8.50285 5.89605 8.84698 6.10557 8.9892 6.58684C9.02095 6.69478 9.11746 6.77097 9.2292 6.77097H9.75492C9.90095 6.77097 10.0152 6.63637 9.98476 6.49287C9.81841 5.73097 9.30539 5.27383 8.50031 5.13033V4.33414C8.50031 4.19573 8.38857 4.08398 8.25015 4.08398H7.74984C7.61142 4.08398 7.49968 4.19573 7.49968 4.33414V5.10875C6.50793 5.2497 5.86793 5.90875 5.86793 6.75573C5.86793 7.8516 6.52952 8.27573 7.92762 8.46367C8.87619 8.61859 9.14539 8.82303 9.14539 9.36271C9.14539 9.9024 8.68698 10.2618 8.0419 10.2618C7.16952 10.2618 6.88127 9.87954 6.77587 9.38557C6.75047 9.26875 6.65015 9.1824 6.53079 9.1824H5.96063C5.81714 9.1824 5.70412 9.31192 5.72952 9.45287C5.87428 10.2846 6.40889 10.8954 7.49968 11.044V11.8338C7.49968 11.9722 7.61142 12.084 7.74984 12.084H8.25015C8.38857 12.084 8.50031 11.9722 8.50031 11.8338V11.044C9.53269 10.8802 10.193 10.1614 10.193 9.27255Z" fill="white"/>
<path d="M6.28571 12.7795C4.37079 12.0785 3.00063 10.2373 3.00064 8.08234C3.00064 5.92741 4.37079 4.08741 6.28571 3.38519C6.40508 3.34202 6.50032 3.19726 6.50032 3.07027V2.60424C6.50032 2.41503 6.35302 2.30837 6.1727 2.36551C3.75238 3.14011 2 5.40678 2 8.08361C2 10.7604 3.75238 13.0271 6.1727 13.8004C6.35302 13.8576 6.50032 13.7509 6.50032 13.5617V13.0957C6.50032 12.9674 6.40508 12.8239 6.28571 12.7795ZM9.82857 2.36678C9.64825 2.30964 9.50095 2.4163 9.50095 2.60551V3.07154C9.50095 3.19853 9.59619 3.34329 9.71555 3.38646C11.6305 4.08741 13.0006 5.92868 13.0006 8.08361C13.0006 10.2385 11.6305 12.0785 9.71555 12.7807C9.58476 12.829 9.50095 12.9573 9.50095 13.0957V13.5617C9.50095 13.7509 9.64825 13.8576 9.82857 13.8004C12.2489 13.0271 14.0013 10.7604 14.0013 8.08361C14.0013 5.40678 12.2476 3.14011 9.82857 2.36678Z" fill="white"/>
</g>
<defs>
<clipPath id="clip0_65973_3890">
<rect width="16" height="16" fill="white"/>
</clipPath>
</defs>
</svg>
