<svg width="28" height="28" viewBox="0 0 28 28" fill="none" xmlns="http://www.w3.org/2000/svg">
<path d="M14 28C21.8053 28 28 21.6814 28 14C28 6.19469 21.6814 0 14 0C6.19469 0 0 6.31858 0 14C0 21.6814 6.31858 28 14 28Z" fill="#2C374B"/>
<path d="M21.0626 16.4779L17.3457 10.7788L15.9829 13.0089L19.5758 18.8319L21.1865 18.0885L21.0626 16.4779Z" fill="#24A2EE"/>
<path d="M19.3274 19.5751L15.6106 13.876L14 16.3539L16.9735 21.0618L18.8319 20.3185L19.3274 19.5751Z" fill="#24A2EE"/>
<path fill-rule="evenodd" clip-rule="evenodd" d="M7.18803 10.0352L14.0022 6.07063L20.8163 10.0352V17.9644L14.0022 21.929L8.92254 19.0795L8.30307 20.1945L13.8783 23.4158C14.0022 23.5397 14.1261 23.5397 14.25 23.4158L22.0553 18.9556C22.1792 18.8317 22.3031 18.7078 22.3031 18.5839V9.66355C22.3031 9.53966 22.1792 9.41576 22.0553 9.29187L14.25 4.83169C14.1261 4.7078 14.0022 4.7078 13.8783 4.83169L6.07298 9.16797C5.94909 9.29187 5.8252 9.41576 5.8252 9.53965V18.46C5.8252 18.5839 5.94909 18.7078 6.07298 18.8317L7.6836 19.6989L8.42696 18.5839L7.31192 17.9644V10.0352H7.18803Z" fill="#98BCDC"/>
<path d="M16.9748 10.0352H14.373L8.30225 19.9467L10.4084 21.1856L16.9748 10.0352Z" fill="white"/>
<path d="M10.4093 11.0266C11.0287 10.0354 12.7632 10.0354 13.5066 10.1593L7.55971 19.6991C7.31192 19.5752 6.81635 19.3274 6.44466 19.0797C5.94909 18.8319 5.8252 18.8319 5.8252 18.4602V17.9646C7.18803 15.9823 9.7898 12.0177 10.4093 11.0266Z" fill="white"/>
</svg>
